<svg data-v-0dd9719b="" version="1.0" xmlns="http://www.w3.org/2000/svg" xmlns:xlink="http://www.w3.org/1999/xlink" width="100%" height="100%" viewBox="0 0 340.000000 250.000000" preserveAspectRatio="xMidYMid meet" color-interpolation-filters="sRGB" style="margin: auto;"> <rect data-v-0dd9719b="" x="0" y="0" width="100%" height="100%" fill="#feffff" fill-opacity="1" class="background"></rect> <rect data-v-0dd9719b="" x="0" y="0" width="100%" height="100%" fill="url(#watermark)" fill-opacity="1" class="watermarklayer"></rect> <g data-v-0dd9719b="" fill="#070707" class="iconlinesvg-g iconlinesvg" transform="translate(78.20548149943352,110.92553615570068)"><g class="tp-name"><g transform="translate(0, 0)"><g data-gra="path-name" fill="#070707" transform="scale(1)"><path d="M18.72-20.39L11.87-10.50L19.02 0L14.76 0L9.59-7.61L4.72 0L0.46 0L7.61-10.50L0.76-20.39L5.17-20.39L9.89-13.09L14.61-20.39L18.72-20.39Z" transform="translate(-0.45646661031276414, 27.844463229078613)"></path></g></g><g transform="translate(22, 0)"><g data-gra="path-name" fill="#070707" transform="scale(1)"><path d="M5.93 0L2.43 0L2.43-20.39L5.78-20.39L5.78-17.50Q8.06-21.00 12.02-21.00L12.02-21.00Q15.52-21.00 17.19-17.80L17.19-17.80Q17.35-17.65 17.35-17.65L17.35-17.65Q20.08-21.15 23.58-21.00L23.58-21.00Q29.82-20.54 29.97-14.00L29.97-14.00L29.97 0L26.48 0L26.48-13.09Q26.63-17.95 22.67-17.80L22.67-17.80Q18.41-17.35 17.95-12.32L17.95-12.32L17.95 0L14.45 0L14.45-14.00Q14.45-17.80 11.26-17.80L11.26-17.80Q6.09-17.50 5.93-11.11L5.93-11.11L5.93 0Z" transform="translate(-2.4344885883347422, 27.844463229078613)"></path></g></g><g transform="translate(53, 0)"><g data-gra="path-name" fill="#070707" transform="scale(1)"><path d="M21.15-11.26L21.15-8.37L1.52-8.37L1.52-11.26L21.15-11.26Z" transform="translate(-1.521555367709214, 27.844463229078613)"></path></g></g><g transform="translate(76, 1.3220572064262335)"><g><g class="imagesvg"><g><rect fill="#070707" fill-opacity="0" stroke-width="2" x="0" y="0" width="28.323689947384047" height="25.50465988976799" class="image-rect"></rect> <svg x="0" y="0" width="28.323689947384047" height="25.50465988976799" filtersec="colorsb4730894187" class="image-svg-svg primary" style="overflow: visible;"><svg xmlns="http://www.w3.org/2000/svg" viewBox="0.30610349774360657 0.18762074410915375 99.39192962646484 89.49938201904297"><path fill="#070707" d="M49.69.194a6.635 6.635 0 0 0-5.438 3.367L1.162 79.8a6.629 6.629 0 0 0 5.747 9.887H93.09a6.633 6.633 0 0 0 5.755-9.887L55.748 3.56A6.618 6.618 0 0 0 49.69.194zM50 20.24l31.747 56.193H18.253L50 20.24z"></path></svg></svg> <!----></g></g></g></g><g transform="translate(108, 0)"><g data-gra="path-name" fill="#070707" transform="scale(1)"><path d="M15.98-27.84L19.32-27.84L19.32 0L16.13 0L16.13-2.74Q14.30 0.30 10.35 0.30L10.35 0.30Q1.83 0 1.37-10.80L1.37-10.80Q1.83-20.54 9.89-21.00L9.89-21.00Q13.09-21.00 15.67-17.95L15.67-17.95Q15.82-17.65 15.98-17.50L15.98-17.50L15.98-17.65L15.98-27.84ZM4.87-10.19L4.87-10.19Q5.17-2.59 10.35-2.28L10.35-2.28Q15.82-2.89 15.98-9.13L15.98-9.13Q15.98-17.80 10.50-17.80L10.50-17.80Q4.72-17.80 4.87-10.19Z" transform="translate(-1.3693998309382922, 27.844463229078613)"></path></g></g><g transform="translate(129, 0)"><g data-gra="path-name" fill="#070707" transform="scale(1)"><path d="M5.93 0L2.43 0L2.43-20.39L5.78-20.39L5.78-17.50Q8.06-21.00 12.02-21.00L12.02-21.00Q15.52-21.00 17.19-17.80L17.19-17.80Q17.35-17.65 17.35-17.65L17.35-17.65Q20.08-21.15 23.58-21.00L23.58-21.00Q29.82-20.54 29.97-14.00L29.97-14.00L29.97 0L26.48 0L26.48-13.09Q26.63-17.95 22.67-17.80L22.67-17.80Q18.41-17.35 17.95-12.32L17.95-12.32L17.95 0L14.45 0L14.45-14.00Q14.45-17.80 11.26-17.80L11.26-17.80Q6.09-17.50 5.93-11.11L5.93-11.11L5.93 0Z" transform="translate(-2.4344885883347422, 27.844463229078613)"></path></g></g><g transform="translate(160, 0)"><g data-gra="path-name" fill="#070707" transform="scale(1)"><path d="M2.59-20.39L6.09-20.39L6.09 0L2.59 0L2.59-20.39ZM6.09-27.84L6.09-24.04L2.59-24.04L2.59-27.84L6.09-27.84Z" transform="translate(-2.5866441251056638, 27.844463229078613)"></path></g></g><g transform="translate(167, 0)"><g data-gra="path-name" fill="#070707" transform="scale(1)"><path d="M19.02-13.85L19.02-13.85L19.02 0L15.67 0L15.67-12.48Q15.98-18.11 11.26-17.80L11.26-17.80Q6.09-17.50 5.93-11.11L5.93-11.11L5.93 0L2.43 0L2.43-20.39L5.78-20.39L5.78-17.50Q8.22-21.00 12.02-21.00L12.02-21.00Q18.87-20.85 19.02-13.85Z" transform="translate(-2.434488588334742, 27.844463229078613)"></path></g></g></g> <!----></g><defs v-gra="od"></defs></svg>